<svg xmlns="http://www.w3.org/2000/svg" viewBox="0 0 1200 675" role="img" aria-label="Blue white sci-fi character card cover">
  <defs>
    <linearGradient id="bg" x1="0" x2="1" y1="0" y2="1">
      <stop offset="0" stop-color="#f8fbff"/>
      <stop offset=".46" stop-color="#d7eef8"/>
      <stop offset="1" stop-color="#90c7d8"/>
    </linearGradient>
    <linearGradient id="cyan" x1="0" x2="1">
      <stop offset="0" stop-color="#78e2ff"/>
      <stop offset="1" stop-color="#1b6c8f"/>
    </linearGradient>
  </defs>
  <rect width="1200" height="675" fill="url(#bg)"/>
  <path d="M62 540C252 284 478 168 748 192c146 13 274-26 390-118v601H62z" fill="#fff" opacity=".55"/>
  <path d="M710 70c-112 86-194 187-246 303l102 118 226-41 92-210z" fill="#f7f9fb" stroke="#9aa8b4" stroke-width="6"/>
  <path d="M650 172c-42 78-60 162-54 252 100-10 192-48 276-114-52-67-126-113-222-138z" fill="#d9f8ff" stroke="#7fb4c6" stroke-width="5"/>
  <path d="M780 64c130 106 232 254 306 444" fill="none" stroke="#183240" stroke-width="28" stroke-linecap="round" opacity=".86"/>
  <path d="M860 70c96 116 165 251 206 406" fill="none" stroke="url(#cyan)" stroke-width="13" stroke-linecap="round"/>
  <circle cx="645" cy="246" r="64" fill="#fbfbfb" stroke="#202d35" stroke-width="8"/>
  <path d="M613 250c50 18 98 12 142-20-18 42-48 72-91 89-28-14-45-37-51-69z" fill="#e8f9ff"/>
  <path d="M590 334l-70 168 129 34 82-150z" fill="#202832"/>
  <path d="M528 505l-82 86 184 8 22-64z" fill="#80d6ee" stroke="#39424c" stroke-width="6"/>
  <path d="M737 386l150 128 72-82-152-118z" fill="#e9f8fb" stroke="#39424c" stroke-width="6"/>
  <path d="M196 120c140 34 260 108 360 222M132 214c190 10 350 78 480 206" fill="none" stroke="#b1c4cf" stroke-width="3" opacity=".55"/>
  <path d="M946 74l120 42-78 84 48 116-126-40-92 84-8-124-108-66 120-32z" fill="#eef8fb" stroke="#8fa6b2" stroke-width="5" opacity=".8"/>
</svg>
