<svg xmlns="http://www.w3.org/2000/svg" viewBox="0 0 1200 675" role="img" aria-label="Dark media grid cover">
  <defs>
    <linearGradient id="sky" x1="0" x2="1" y1="0" y2="1">
      <stop offset="0" stop-color="#6fd3f2"/>
      <stop offset=".45" stop-color="#b7ecfa"/>
      <stop offset="1" stop-color="#f5d1e3"/>
    </linearGradient>
  </defs>
  <rect width="1200" height="675" fill="#080b0f"/>
  <rect x="64" y="72" width="1072" height="530" fill="url(#sky)"/>
  <path d="M72 530c152-180 285-240 398-180 96 50 172 37 228-38 73-97 205-112 398-45v335H72z" fill="#f7f2fa" opacity=".72"/>
  <path d="M170 460l70-220 94 220zM828 488l86-274 114 274z" fill="#5cc5d8" opacity=".55"/>
  <path d="M88 182c162 15 326 86 492 213 150-100 324-159 522-177" fill="none" stroke="#fff" stroke-width="4" opacity=".8"/>
  <g fill="#fff">
    <circle cx="188" cy="202" r="7"/>
    <circle cx="346" cy="268" r="7"/>
    <circle cx="580" cy="395" r="7"/>
    <circle cx="798" cy="292" r="7"/>
    <circle cx="1018" cy="226" r="7"/>
  </g>
</svg>
