<svg xmlns="http://www.w3.org/2000/svg" viewBox="0 0 1440 900" role="img" aria-label="Gallery hero artwork">
  <defs>
    <linearGradient id="sky" x1="0" x2="1" y1="0" y2="1">
      <stop offset="0" stop-color="#3ebadd"/>
      <stop offset=".5" stop-color="#c2f0fa"/>
      <stop offset="1" stop-color="#ffd1df"/>
    </linearGradient>
  </defs>
  <rect width="1440" height="900" fill="#080b0f"/>
  <rect x="86" y="88" width="1268" height="692" fill="url(#sky)"/>
  <path d="M86 665c198-226 371-302 520-228 120 60 215 38 286-66 92-135 253-159 462-72v481H86z" fill="#faf3fb" opacity=".76"/>
  <path d="M190 626l92-334 126 334zM1003 664l100-385 142 385z" fill="#5cc5d8" opacity=".55"/>
  <path d="M118 230c209 22 419 118 630 288 187-136 394-217 622-243" fill="none" stroke="#fff" stroke-width="5" opacity=".85"/>
  <g fill="#fff">
    <circle cx="232" cy="258" r="8"/>
    <circle cx="430" cy="342" r="8"/>
    <circle cx="748" cy="518" r="8"/>
    <circle cx="992" cy="379" r="8"/>
    <circle cx="1266" cy="300" r="8"/>
  </g>
</svg>
